<svg
                        width="390"
                        height="401"
                        viewBox="0 0 390 401"
                        fill="none"
                        xmlns="http://www.w3.org/2000/svg"
                    >
                        <g clip-path="url(#clip0_2_1160)">
                            <rect
                                x="300.004"
                                y="5.60791"
                                width="350"
                                height="222"
                                rx="16"
                                transform="rotate(90 300.004 5.60791)"
                                fill="#00252E"
                            />
                            <path
                                opacity="0.53"
                                d="M299.889 113.002L300.004 334.566C300.004 336.487 299.743 338.357 299.251 340.122L200.712 241.834C197.763 238.9 195.86 235.318 195.054 231.548C193.528 224.802 195.41 217.419 200.702 212.156L299.889 113.002Z"
                                fill="url(#paint0_linear_2_1160)"
                            />
                            <path
                                opacity="0.53"
                                d="M156.314 260.587L252.5 356.524L97.1617 356.608C85.5842 356.618 76.1926 347.241 76.1822 335.691L76.1717 310.994L126.592 260.597C134.78 252.389 148.104 252.379 156.314 260.587Z"
                                fill="url(#paint1_linear_2_1160)"
                            />
                            <path
                                opacity="0.53"
                                d="M78.088 174.217L108.302 204.344C116.523 212.531 116.533 225.836 108.323 234.023L78.1403 264.192L78.088 174.217Z"
                                fill="url(#paint2_linear_2_1160)"
                            />
                            <path
                                opacity="0.53"
                                d="M97.9629 3.7021L258.635 3.61857C258.855 9.24723 256.826 14.9594 252.506 19.2618L124.998 146.716C116.798 154.924 103.464 154.934 95.2541 146.737L77.0566 128.587L77.0043 24.6503C77.0043 20.5254 78.207 16.6512 80.2987 13.4139C84.0114 7.56595 90.527 3.7021 97.9629 3.7021Z"
                                fill="url(#paint3_linear_2_1160)"
                            />
                            <path
                                d="M107.502 34.3039L107.502 37.8048C107.502 38.8995 107.806 39.7232 108.883 40.1892L124.206 46.9092L124.206 42.1402C124.206 42.1402 122.151 41.349 121.716 41.1864L121.716 35.3769C122.292 35.236 124.206 34.8241 124.206 34.8241L124.206 30.6079L107.502 34.3039ZM118.29 39.8858C117.333 39.5172 113.603 38.1082 113.603 38.1082C113.603 38.1082 112.624 37.718 112.026 37.4904L113.461 37.187C113.461 37.187 117.442 36.309 118.29 36.1356L118.29 39.8858Z"
                                fill="white"
                            />
                            <path
                                d="M112.146 52.9572C112.918 52.968 113.44 51.9817 114.212 50.3993C115.408 47.7872 116.844 46.5733 118.758 46.6058C122.227 46.6274 124.467 49.7273 124.467 54.4854C124.446 56.5231 124.032 58.4741 123.576 59.5363L119.834 58.8968L120.095 58.3223C120.715 56.8374 120.976 55.862 120.976 54.0519C120.976 52.7513 120.465 51.3531 119.345 51.3314C118.605 51.3206 118.083 51.9275 117.268 53.6834C116.474 55.4176 115.136 57.6937 112.744 57.6612C109.503 57.6395 107.219 54.4746 107.219 49.9983C107.219 48.2424 107.589 46.8225 107.926 45.9338L111.537 46.5516L111.352 46.9634C111.014 47.8088 110.699 48.8819 110.71 50.3668C110.699 52.1335 111.45 52.9572 112.146 52.9572Z"
                                fill="white"
                            />
                            <path
                                d="M107.513 59.5578L124.206 62.3867L124.206 66.9172L120.965 66.3645L115.637 65.4649L107.524 64.0992L107.513 59.5578Z"
                                fill="white"
                            />
                            <path
                                d="M116.115 75.8375C112.254 77.3549 109.046 80.975 107.719 86.4485L107.382 86.3943L107.382 79.36C107.426 78.4062 107.719 77.6367 108.742 77.3765L116.115 75.8375Z"
                                fill="white"
                            />
                            <path
                                d="M107.534 65.931L124.195 73.0737L124.195 77.8644L110.275 81.9288C112.156 79.0132 115.136 76.5312 117.203 75.6533L118.932 75.1764L107.534 70.7326L107.534 65.931Z"
                                fill="white"
                            />
                            <path
                                d="M106.148 296.459L125.506 296.448C127.79 296.448 129.66 298.313 129.66 300.578L129.682 327.219C129.682 329.506 127.811 331.37 125.539 331.37L106.18 331.392C103.886 331.392 102.026 329.528 102.026 327.252L102.004 300.6C102.004 298.323 103.853 296.459 106.148 296.459Z"
                                fill="#F6C859"
                            />
                            <path
                                d="M125.984 317.92C125.984 318.071 125.908 318.212 125.767 318.277C125.571 318.375 125.321 318.299 125.223 318.104C124.919 317.519 124.353 316.728 123.385 316.261C122.145 315.676 120.797 315.828 120.677 316.077C120.645 316.142 120.775 316.381 120.851 316.532C121.047 316.912 121.319 317.443 121.101 318.05C120.895 318.646 120.362 318.939 120.101 319.079C118.415 320.001 114.043 320.283 111.868 319.318C111.15 318.993 110.715 318.559 110.585 318.017C110.454 317.465 110.683 317.009 110.879 316.652C111.031 316.359 111.096 316.207 111.042 316.11C110.813 315.73 109.421 315.741 108.323 316.272C107.344 316.738 106.779 317.53 106.485 318.115C106.387 318.31 106.137 318.397 105.941 318.288C105.745 318.191 105.658 317.941 105.767 317.746C106.126 317.053 106.8 316.099 107.986 315.546C109.149 314.993 111.161 314.733 111.749 315.698C112.042 316.186 111.803 316.652 111.618 317.02C111.477 317.302 111.335 317.573 111.401 317.833C111.488 318.191 111.89 318.429 112.216 318.581C114.119 319.426 118.252 319.177 119.731 318.375C119.981 318.234 120.253 318.071 120.351 317.79C120.449 317.519 120.329 317.259 120.144 316.901C119.959 316.543 119.764 316.153 119.959 315.73C120.405 314.82 122.352 314.885 123.744 315.535C124.929 316.099 125.604 317.042 125.963 317.735C125.973 317.801 125.984 317.866 125.984 317.92Z"
                                fill="#7D662D"
                            />
                            <path
                                d="M112.597 319.144L112.597 326.417C112.597 326.645 112.412 326.818 112.194 326.818C111.977 326.818 111.792 326.645 111.792 326.428L111.792 319.155C111.792 318.928 111.977 318.754 112.194 318.754C112.412 318.743 112.597 318.917 112.597 319.144Z"
                                fill="#7D662D"
                            />
                            <path
                                d="M119.905 319.144L119.905 326.417C119.905 326.645 119.72 326.818 119.503 326.818C119.274 326.818 119.1 326.634 119.1 326.417L119.1 319.144C119.1 318.917 119.285 318.743 119.503 318.743C119.72 318.733 119.905 318.917 119.905 319.144Z"
                                fill="#7D662D"
                            />
                            <path
                                d="M125.974 309.433C125.974 309.498 125.963 309.563 125.93 309.617C125.571 310.311 124.897 311.265 123.711 311.818C122.319 312.479 120.373 312.533 119.927 311.633C119.72 311.211 119.927 310.81 120.101 310.463C120.286 310.094 120.405 309.834 120.307 309.574C120.199 309.271 119.883 309.097 119.688 308.989C118.209 308.187 114.065 307.948 112.173 308.794C111.846 308.945 111.433 309.184 111.357 309.541C111.303 309.758 111.085 309.899 110.868 309.845C110.65 309.791 110.52 309.574 110.563 309.357C110.694 308.815 111.118 308.382 111.836 308.057C114.011 307.081 118.393 307.363 120.068 308.284C120.329 308.425 120.862 308.718 121.069 309.314C121.286 309.921 121.014 310.452 120.819 310.831C120.742 310.983 120.623 311.221 120.645 311.286C120.764 311.525 122.113 311.688 123.353 311.091C124.331 310.625 124.897 309.834 125.19 309.249C125.288 309.054 125.538 308.967 125.734 309.075C125.897 309.14 125.974 309.281 125.974 309.433Z"
                                fill="#7D662D"
                            />
                            <path
                                d="M110.966 311.059C110.966 311.232 110.857 311.384 110.694 311.438C108.084 312.305 106.072 310.278 105.745 309.628C105.637 309.433 105.724 309.184 105.919 309.086C106.115 308.989 106.365 309.065 106.463 309.26C106.615 309.552 108.214 311.417 110.433 310.68C110.65 310.604 110.879 310.723 110.944 310.94C110.966 310.972 110.966 311.015 110.966 311.059Z"
                                fill="#7D662D"
                            />
                            <path
                                d="M112.586 300.947L112.586 308.219C112.586 308.447 112.401 308.62 112.184 308.62C111.966 308.62 111.781 308.436 111.781 308.219L111.781 300.947C111.781 300.719 111.966 300.545 112.184 300.545C112.401 300.545 112.586 300.73 112.586 300.947Z"
                                fill="#7D662D"
                            />
                            <path
                                d="M119.883 300.947L119.883 308.219C119.883 308.447 119.698 308.62 119.481 308.62C119.253 308.62 119.079 308.436 119.079 308.219L119.079 300.947C119.079 300.719 119.263 300.545 119.481 300.545C119.709 300.545 119.883 300.719 119.883 300.947Z"
                                fill="#7D662D"
                            />
                            <path
                                d="M181.933 324.319L183.7 324.319L183.596 326.836L185.614 325.374L186.555 326.951L184.286 328.194L186.555 329.436L185.614 330.982L183.596 329.551L183.711 332.037L181.943 332.037L182.079 329.551L180.029 330.992L179.088 329.447L181.357 328.204L179.088 326.961L180.029 325.385L182.079 326.847L181.933 324.319Z"
                                fill="white"
                            />
                            <path
                                d="M181.922 311.381L183.69 311.381L183.585 313.897L185.603 312.435L186.545 314.012L184.275 315.255L186.545 316.498L185.603 318.043L183.585 316.612L183.7 319.098L181.933 319.098L182.069 316.612L180.019 318.054L179.077 316.508L181.347 315.265L179.077 314.023L180.019 312.446L182.069 313.908L181.922 311.381Z"
                                fill="white"
                            />
                            <path
                                d="M181.922 298.432L183.69 298.432L183.585 300.938L185.604 299.476L186.545 301.053L184.275 302.295L186.545 303.538L185.604 305.084L183.585 303.653L183.7 306.138L181.933 306.138L182.069 303.653L180.019 305.094L179.078 303.549L181.347 302.306L179.078 301.063L180.019 299.486L182.069 300.948L181.922 298.432Z"
                                fill="white"
                            />
                            <path
                                d="M181.912 285.493L183.679 285.493L183.575 288.01L185.593 286.548L186.534 288.125L184.265 289.367L186.534 290.61L185.593 292.155L183.575 290.725L183.69 293.21L181.922 293.21L182.058 290.725L180.008 292.166L179.067 290.62L181.337 289.378L179.067 288.135L180.008 286.558L182.058 288.02L181.912 285.493Z"
                                fill="white"
                            />
                            <path
                                d="M181.901 263.574L183.669 263.574L183.564 266.091L185.583 264.629L186.524 266.205L184.254 267.448L186.524 268.691L185.583 270.236L183.564 268.806L183.679 271.291L181.912 271.291L182.048 268.806L179.998 270.247L179.057 268.701L181.326 267.459L179.057 266.216L179.998 264.639L182.048 266.101L181.901 263.574Z"
                                fill="white"
                            />
                            <path
                                d="M181.891 250.625L183.658 250.625L183.554 253.141L185.572 251.679L186.513 253.256L184.244 254.499L186.513 255.742L185.572 257.287L183.554 255.857L183.669 258.342L181.901 258.342L182.037 255.857L179.987 257.298L179.046 255.752L181.316 254.509L179.046 253.267L179.987 251.69L182.037 253.152L181.891 250.625Z"
                                fill="white"
                            />
                            <path
                                d="M181.891 237.686L183.658 237.686L183.554 240.203L185.572 238.741L186.513 240.318L184.244 241.561L186.513 242.803L185.572 244.349L183.554 242.918L183.669 245.403L181.901 245.403L182.037 242.918L179.987 244.359L179.046 242.814L181.316 241.571L179.046 240.328L179.987 238.751L182.037 240.213L181.891 237.686Z"
                                fill="white"
                            />
                            <path
                                d="M181.88 224.737L183.648 224.737L183.543 227.243L185.562 225.781L186.503 227.358L184.233 228.601L186.503 229.843L185.562 231.389L183.543 229.958L183.658 232.444L181.891 232.444L182.027 229.958L179.977 231.399L179.036 229.854L181.305 228.611L179.036 227.368L179.977 225.792L182.027 227.254L181.88 224.737Z"
                                fill="white"
                            />
                            <path
                                d="M181.87 202.828L183.637 202.828L183.533 205.345L185.551 203.883L186.492 205.46L184.223 206.702L186.492 207.945L185.551 209.491L183.533 208.06L183.648 210.545L181.88 210.545L182.016 208.06L179.966 209.501L179.025 207.956L181.295 206.713L179.025 205.47L179.966 203.893L182.016 205.355L181.87 202.828Z"
                                fill="white"
                            />
                            <path
                                d="M181.859 189.879L183.627 189.879L183.522 192.396L185.541 190.934L186.482 192.511L184.213 193.753L186.482 194.996L185.541 196.542L183.522 195.111L183.637 197.596L181.87 197.596L182.006 195.111L179.956 196.552L179.015 195.007L181.284 193.764L179.015 192.521L179.956 190.944L182.006 192.406L181.859 189.879Z"
                                fill="white"
                            />
                            <path
                                d="M181.849 176.93L183.616 176.93L183.512 179.447L185.53 177.985L186.472 179.561L184.202 180.804L186.472 182.047L185.53 183.592L183.512 182.162L183.627 184.647L181.859 184.647L181.995 182.162L179.946 183.603L179.004 182.057L181.274 180.815L179.004 179.572L179.946 177.995L181.995 179.457L181.849 176.93Z"
                                fill="white"
                            />
                            <path
                                d="M181.849 163.992L183.616 163.992L183.512 166.498L185.53 165.036L186.472 166.613L184.202 167.856L186.472 169.098L185.53 170.644L183.512 169.213L183.627 171.698L181.859 171.698L181.995 169.213L179.946 170.654L179.004 169.109L181.274 167.866L179.004 166.623L179.946 165.046L181.995 166.508L181.849 163.992Z"
                                fill="white"
                            />
                            <path
                                d="M198.697 150.374L196.595 150.374L189.63 143.565C187.8 141.748 186.241 140.829 184.934 140.829C183.847 140.829 182.999 141.164 182.393 141.822C181.786 142.479 181.483 143.294 181.483 144.255C181.483 146.082 182.351 147.398 184.087 148.223L182.822 150.374C181.567 149.768 180.615 148.923 179.977 147.847C179.328 146.771 179.004 145.581 179.004 144.276C179.004 142.657 179.538 141.247 180.604 140.057C181.671 138.856 183.114 138.261 184.913 138.261C186.869 138.261 189.002 139.409 191.303 141.707L196.229 146.636L196.229 137.906L198.718 137.906L198.697 150.374Z"
                                fill="white"
                            />
                            <path
                                d="M187.267 126.314C187.539 124.841 188.176 123.63 189.17 122.69C190.164 121.75 191.429 121.28 192.956 121.28C194.838 121.28 196.324 121.928 197.411 123.212C198.499 124.497 199.043 126.063 199.043 127.901C199.043 129.374 198.708 130.679 198.039 131.817C197.369 132.955 196.397 133.77 195.121 134.25L193.845 132.099C195.633 131.525 196.522 130.125 196.522 127.901C196.522 126.711 196.209 125.729 195.581 124.977C194.954 124.225 194.075 123.849 192.956 123.849C191.837 123.849 190.948 124.225 190.32 124.977C189.682 125.729 189.369 126.711 189.369 127.901L189.369 128.559L187.79 129.582L181.734 125.113L181.734 133.697L179.329 133.697L179.318 122.105L181.577 122.116L187.267 126.314Z"
                                fill="white"
                            />
                            <path
                                d="M192.59 102.212L194.995 102.212L194.995 104.561L198.677 104.561L198.677 107.13L194.995 107.13L194.995 116.988L192.59 116.988L179.318 110.065L179.318 107.308L192.59 114.232L192.59 107.141L187.12 107.141L187.12 104.572L192.59 104.572L192.59 102.212Z"
                                fill="white"
                            />
                            <path
                                d="M186.869 92.1244C186.869 90.2969 187.403 88.7618 188.48 87.4983C189.557 86.2347 191.042 85.6081 192.946 85.6081C194.828 85.6081 196.313 86.2556 197.401 87.54C198.488 88.8245 199.032 90.3909 199.032 92.2288C199.032 93.7013 198.677 95.0171 197.966 96.1762C197.254 97.3354 196.229 98.1499 194.88 98.6094L193.636 96.4268C194.577 96.1658 195.288 95.675 195.78 94.9335C196.271 94.1921 196.512 93.294 196.512 92.2288C196.512 91.0175 196.198 90.0254 195.571 89.2735C194.943 88.5217 194.065 88.1457 192.946 88.1457C191.826 88.1457 190.938 88.5216 190.31 89.284C189.672 90.0358 189.358 91.007 189.358 92.1871L189.358 97.6487L179.318 96.9594L179.308 86.36L181.713 86.36L181.713 94.6098L186.859 94.944L186.869 92.1244Z"
                                fill="white"
                            />
                            <path
                                d="M272.004 83.3452L261 83.3452L261 83.3804L263.417 86.7378L261.747 86.7378L259.322 83.3628L259.322 81.8159L272.004 81.8159L272.004 83.3452ZM262.978 78.6782C260.763 78.6782 259.111 76.8853 259.111 74.4946C259.111 72.2271 260.649 70.4429 262.591 70.4429C264.006 70.4429 265.061 71.0845 267.249 73.2026L270.563 76.4106L270.598 76.4106L270.598 70.2319L272.004 70.2319L272.004 78.5991L270.914 78.5991L266.212 74.1343C264.419 72.4292 263.743 72.0249 262.688 72.0249C261.466 72.0249 260.491 73.1411 260.491 74.5386C260.491 76.0239 261.563 77.1489 262.978 77.1489L262.987 77.1489L262.987 78.6782L262.978 78.6782ZM274.703 68.1226L274.703 69.4321L259.322 64.9409L259.322 63.6313L274.703 68.1226ZM262.978 62.6821C260.763 62.6821 259.111 60.8892 259.111 58.4985C259.111 56.231 260.649 54.4468 262.591 54.4468C264.006 54.4468 265.061 55.0884 267.249 57.2065L270.563 60.4146L270.598 60.4146L270.598 54.2358L272.004 54.2358L272.004 62.603L270.914 62.603L266.212 58.1382C264.419 56.4331 263.743 56.0288 262.688 56.0288C261.466 56.0288 260.491 57.145 260.491 58.5425C260.491 60.0278 261.563 61.1528 262.978 61.1528L262.987 61.1528L262.987 62.6821L262.978 62.6821ZM272.004 46.8179L269.368 46.8179L269.368 53.1899L267.935 53.1899C265.931 52.1089 263.62 50.6235 259.322 47.6265L259.322 45.2886L267.979 45.2886L267.979 43.4956L269.368 43.4956L269.368 45.2886L272.004 45.2886L272.004 46.8179ZM267.944 51.6255L267.979 51.6255L267.979 46.8179L260.64 46.8179L260.64 46.8442C264.068 49.2437 266.186 50.6235 267.944 51.6255Z"
                                fill="white"
                            />
                            <path
                                d="M243.055 81.5493L244.004 81.5493L244.004 86.7876L235.549 86.7876L235.549 81.5493L236.498 81.5493L236.498 85.7329L239.211 85.7329L239.211 81.7661L240.149 81.7661L240.149 85.7329L243.055 85.7329L243.055 81.5493ZM241.684 78.1567L241.684 78.1802L244.004 79.6509L244.004 80.7817L240.957 78.7075L237.911 80.7466L237.911 79.6099L240.196 78.145L240.196 78.1216L237.911 76.6743L237.911 75.5376L240.916 77.5942L244.004 75.5669L244.004 76.6978L241.684 78.1567ZM244.004 74.6235L237.911 74.6235L237.911 73.604L244.004 73.604L244.004 74.6235ZM236.885 74.1138C236.885 74.4595 236.598 74.7466 236.252 74.7466C235.901 74.7466 235.62 74.4595 235.62 74.1138C235.62 73.7622 235.901 73.4751 236.252 73.4751C236.598 73.4751 236.885 73.7622 236.885 74.1138ZM237.805 69.2681C237.805 67.7153 239.047 66.6606 240.957 66.6606C242.868 66.6606 244.11 67.7095 244.11 69.2446C244.11 70.1177 243.682 70.8208 243.014 71.1841L243.014 71.2075L246.037 71.2075L246.037 72.2271L237.911 72.2271L237.911 71.2603L238.942 71.2603L238.942 71.2368C238.256 70.8618 237.805 70.1528 237.805 69.2681ZM243.213 69.4673C243.213 68.3833 242.34 67.7036 240.957 67.7036C239.58 67.7036 238.702 68.3833 238.702 69.4673C238.702 70.5103 239.604 71.2134 240.957 71.2134C242.317 71.2134 243.213 70.5103 243.213 69.4673ZM244.004 65.6294L237.911 65.6294L237.911 64.6685L238.907 64.6685L238.907 64.645C238.233 64.4458 237.805 63.8833 237.805 63.1685C237.805 62.9927 237.834 62.8403 237.846 62.7583L238.836 62.7583C238.807 62.8403 238.778 63.0571 238.778 63.3032C238.778 64.0942 239.346 64.6099 240.207 64.6099L244.004 64.6099L244.004 65.6294ZM246.284 61.4224C246.284 61.5454 246.272 61.7505 246.248 61.8618L245.393 61.8618C245.416 61.7505 245.422 61.5923 245.422 61.4634C245.422 60.895 245.147 60.5786 244.438 60.3442L244.01 60.2036L237.911 62.4536L237.911 61.3638L242.985 59.6763L242.985 59.6587L237.911 57.9712L237.911 56.8989L244.432 59.2954C245.856 59.8169 246.284 60.3208 246.284 61.4224ZM235.549 53.4712L235.549 50.6294C235.549 48.1216 237.114 46.6392 239.774 46.6392C242.44 46.6392 244.004 48.1157 244.004 50.6294L244.004 53.4712L235.549 53.4712ZM236.498 52.4165L243.055 52.4165L243.055 50.6997C243.055 48.7837 241.883 47.7173 239.786 47.7173C237.67 47.7173 236.498 48.7778 236.498 50.6997L236.498 52.4165ZM243.243 43.4751C243.243 42.5142 242.569 41.7759 241.69 41.7759L241.192 41.7759L241.291 43.4048C241.344 44.2251 241.707 44.6938 242.282 44.6938C242.862 44.6938 243.243 44.2075 243.243 43.4751ZM244.11 43.7036C244.11 44.9165 243.377 45.731 242.282 45.731C241.239 45.731 240.582 44.9282 240.5 43.522L240.401 41.7759L239.891 41.7759C239.147 41.7759 238.702 42.2681 238.702 43.1118C238.702 43.897 239.071 44.3892 239.668 44.5181L239.668 45.5024C238.614 45.4321 237.805 44.5298 237.805 43.0884C237.805 41.6587 238.578 40.7563 239.791 40.7563L244.004 40.7563L244.004 41.7231L242.955 41.7231L242.955 41.7466C243.653 42.1099 244.11 42.8833 244.11 43.7036ZM236.44 39.1333L236.44 38.1138L237.911 38.1138L237.911 36.9302L238.748 36.9302L238.748 38.1138L242.37 38.1138C242.926 38.1138 243.178 37.8794 243.178 37.3579C243.178 37.2407 243.161 37.0063 243.149 36.936L244.004 36.936C244.034 37.0591 244.051 37.3403 244.051 37.5806C244.051 38.6997 243.594 39.1333 242.422 39.1333L238.748 39.1333L238.748 40.0415L237.911 40.0415L237.911 39.1333L236.44 39.1333ZM238.69 33.5728C238.69 34.5278 239.422 35.1958 240.436 35.2603L240.436 31.9497C239.416 31.9731 238.69 32.6118 238.69 33.5728ZM242.258 31.9731L242.258 30.9712C243.325 31.147 244.11 32.1782 244.11 33.5083C244.11 35.2544 242.897 36.3149 240.981 36.3149C239.088 36.3149 237.805 35.2368 237.805 33.5552C237.805 31.9087 239 30.895 240.846 30.895L241.233 30.895L241.233 35.2661L241.291 35.2661C242.457 35.2661 243.225 34.5806 243.225 33.4849C243.225 32.7114 242.832 32.1431 242.258 31.9731Z"
                                fill="white"
                            />
                            <path
                                d="M270.088 322.467L272.004 322.467L272.004 330.492L259.322 330.492L259.322 328.224L270.088 328.224L270.088 322.467ZM270.897 313.828C271.758 314.642 272.189 315.738 272.189 317.115C272.189 318.492 271.758 319.587 270.897 320.402C270.03 321.216 268.846 321.624 267.346 321.624C265.852 321.624 264.671 321.213 263.804 320.393C262.931 319.573 262.495 318.48 262.495 317.115C262.495 315.744 262.931 314.651 263.804 313.836C264.671 313.016 265.852 312.606 267.346 312.606C268.846 312.606 270.03 313.013 270.897 313.828ZM269.64 318.785C270.185 318.375 270.457 317.818 270.457 317.115C270.457 316.412 270.185 315.855 269.64 315.445C269.095 315.035 268.33 314.83 267.346 314.83C266.368 314.83 265.606 315.035 265.061 315.445C264.51 315.855 264.235 316.412 264.235 317.115C264.235 317.812 264.51 318.369 265.061 318.785C265.606 319.195 266.368 319.4 267.346 319.4C268.33 319.4 269.095 319.195 269.64 318.785ZM272.004 311.138L259.322 311.138L259.322 308.95L272.004 308.95L272.004 311.138ZM270.501 303.685C270.501 303.058 270.317 302.531 269.948 302.103C269.573 301.669 269.107 301.453 268.55 301.453L267.838 301.453L267.97 303.606C268.005 304.133 268.137 304.543 268.366 304.836C268.588 305.124 268.884 305.267 269.253 305.267C269.634 305.267 269.939 305.124 270.167 304.836C270.39 304.543 270.501 304.16 270.501 303.685ZM272.154 304.344C272.154 305.252 271.893 306 271.371 306.585C270.85 307.166 270.173 307.456 269.341 307.456C268.515 307.456 267.862 307.151 267.381 306.542C266.901 305.926 266.625 305.05 266.555 303.914L266.414 301.453L265.746 301.453C265.26 301.453 264.882 301.608 264.613 301.918C264.343 302.223 264.208 302.648 264.208 303.193C264.208 303.703 264.323 304.119 264.551 304.441C264.78 304.763 265.09 304.959 265.483 305.03L265.483 307.06C264.598 307.013 263.88 306.635 263.329 305.926C262.773 305.211 262.495 304.271 262.495 303.105C262.495 301.951 262.776 301.028 263.338 300.336C263.901 299.639 264.651 299.291 265.588 299.291L272.004 299.291L272.004 301.4L270.519 301.4L270.519 301.444C271.017 301.708 271.415 302.106 271.714 302.639C272.007 303.172 272.154 303.741 272.154 304.344ZM261.159 291.433L265.492 291.433L265.492 288.875C265.492 288.155 265.301 287.595 264.92 287.197C264.539 286.798 264.006 286.599 263.321 286.599C262.653 286.599 262.125 286.807 261.739 287.223C261.352 287.639 261.159 288.205 261.159 288.919L261.159 291.433ZM267.232 291.433L272.004 291.433L272.004 293.701L259.322 293.701L259.322 288.665C259.322 287.299 259.676 286.227 260.385 285.448C261.088 284.668 262.049 284.279 263.268 284.279C264.118 284.279 264.868 284.49 265.518 284.912C266.162 285.333 266.62 285.919 266.889 286.669L272.004 283.901L272.004 286.485L267.232 288.981L267.232 291.433ZM270.897 275.314C271.758 276.128 272.189 277.224 272.189 278.601C272.189 279.978 271.758 281.074 270.897 281.888C270.03 282.703 268.846 283.11 267.346 283.11C265.852 283.11 264.671 282.7 263.804 281.879C262.931 281.059 262.495 279.966 262.495 278.601C262.495 277.23 262.931 276.137 263.804 275.323C264.671 274.502 265.852 274.092 267.346 274.092C268.846 274.092 270.03 274.5 270.897 275.314ZM269.64 280.271C270.185 279.861 270.457 279.304 270.457 278.601C270.457 277.898 270.185 277.341 269.64 276.931C269.095 276.521 268.33 276.316 267.346 276.316C266.368 276.316 265.606 276.521 265.061 276.931C264.51 277.341 264.235 277.898 264.235 278.601C264.235 279.298 264.51 279.855 265.061 280.271C265.606 280.681 266.368 280.886 267.346 280.886C268.33 280.886 269.095 280.681 269.64 280.271ZM265.36 272.853C264.504 272.853 263.813 272.507 263.286 271.816C262.758 271.125 262.495 270.213 262.495 269.083C262.495 267.993 262.764 267.108 263.303 266.428C263.836 265.743 264.534 265.385 265.395 265.356L265.395 267.395C264.991 267.43 264.674 267.6 264.446 267.905C264.217 268.209 264.103 268.617 264.103 269.126C264.103 269.607 264.208 269.994 264.419 270.287C264.624 270.58 264.897 270.726 265.237 270.726C265.752 270.726 266.119 270.281 266.335 269.39L266.704 267.729C266.921 266.797 267.226 266.132 267.619 265.734C268.011 265.335 268.553 265.136 269.245 265.136C270.123 265.136 270.835 265.505 271.38 266.244C271.919 266.982 272.189 267.94 272.189 269.118C272.189 270.278 271.925 271.212 271.398 271.921C270.865 272.625 270.153 273.014 269.262 273.09L269.262 270.937C269.69 270.873 270.018 270.679 270.246 270.357C270.475 270.029 270.589 269.589 270.589 269.039C270.589 268.505 270.49 268.086 270.29 267.782C270.085 267.471 269.81 267.316 269.464 267.316C269.195 267.316 268.981 267.413 268.823 267.606C268.659 267.793 268.518 268.113 268.401 268.564L268.005 270.26C267.601 271.989 266.719 272.853 265.36 272.853ZM264.191 259.722C264.191 260.332 264.402 260.841 264.824 261.251C265.24 261.656 265.776 261.881 266.432 261.928L266.432 257.578C265.77 257.601 265.231 257.809 264.815 258.202C264.399 258.594 264.191 259.101 264.191 259.722ZM269.218 257.569L269.218 255.521C270.103 255.662 270.821 256.11 271.371 256.866C271.916 257.622 272.189 258.547 272.189 259.643C272.189 261.038 271.761 262.133 270.906 262.93C270.044 263.727 268.87 264.125 267.381 264.125C265.905 264.125 264.721 263.73 263.83 262.939C262.94 262.142 262.495 261.073 262.495 259.731C262.495 258.413 262.919 257.367 263.769 256.593C264.613 255.82 265.744 255.433 267.162 255.433L267.873 255.433L267.873 261.946L268.005 261.946C268.755 261.946 269.359 261.735 269.816 261.313C270.273 260.885 270.501 260.314 270.501 259.599C270.501 259.095 270.387 258.662 270.159 258.298C269.924 257.929 269.611 257.686 269.218 257.569Z"
                                fill="white"
                            />
                            <path
                                d="M244.145 327.307C244.145 329.639 242.452 331.116 239.774 331.116C237.12 331.116 235.409 329.622 235.409 327.307C235.409 325.467 236.528 324.067 238.215 323.797L238.215 324.864C237.108 325.133 236.381 326.1 236.381 327.307C236.381 328.959 237.717 330.032 239.774 330.032C241.848 330.032 243.172 328.971 243.172 327.301C243.172 326.059 242.575 325.168 241.543 324.864L241.543 323.797C243.213 324.184 244.145 325.438 244.145 327.307ZM243.243 320.698C243.243 319.737 242.569 318.999 241.69 318.999L241.192 318.999L241.291 320.627C241.344 321.448 241.707 321.917 242.282 321.917C242.862 321.917 243.243 321.43 243.243 320.698ZM244.11 320.926C244.11 322.139 243.377 322.954 242.282 322.954C241.239 322.954 240.582 322.151 240.5 320.745L240.401 318.999L239.891 318.999C239.147 318.999 238.702 319.491 238.702 320.334C238.702 321.12 239.071 321.612 239.668 321.741L239.668 322.725C238.614 322.655 237.805 321.752 237.805 320.311C237.805 318.881 238.578 317.979 239.791 317.979L244.004 317.979L244.004 318.946L242.955 318.946L242.955 318.969C243.653 319.333 244.11 320.106 244.11 320.926ZM244.004 316.684L237.911 316.684L237.911 315.723L238.907 315.723L238.907 315.7C238.233 315.5 237.805 314.938 237.805 314.223C237.805 314.047 237.834 313.895 237.846 313.813L238.836 313.813C238.807 313.895 238.778 314.112 238.778 314.358C238.778 315.149 239.346 315.665 240.207 315.665L244.004 315.665L244.004 316.684ZM244.11 310.965C244.11 312.518 242.868 313.573 240.957 313.573C239.047 313.573 237.805 312.524 237.805 310.989C237.805 310.116 238.233 309.413 238.901 309.049L238.901 309.026L235.549 309.026L235.549 308.006L244.004 308.006L244.004 308.979L242.973 308.979L242.973 308.997C243.676 309.389 244.11 310.086 244.11 310.965ZM238.702 310.772C238.702 311.85 239.58 312.53 240.957 312.53C242.34 312.53 243.213 311.85 243.213 310.772C243.213 309.723 242.323 309.02 240.957 309.02C239.598 309.02 238.702 309.723 238.702 310.772ZM244.004 297.26L244.004 298.315L240.155 298.315L240.155 302.956L244.004 302.956L244.004 304.01L235.549 304.01L235.549 302.956L239.205 302.956L239.205 298.315L235.549 298.315L235.549 297.26L244.004 297.26ZM244.11 293.252C244.11 294.94 242.897 296.077 240.957 296.077C239.012 296.077 237.805 294.94 237.805 293.252C237.805 291.571 239.012 290.434 240.957 290.434C242.897 290.434 244.11 291.571 244.11 293.252ZM243.213 293.252C243.213 292.174 242.393 291.471 240.957 291.471C239.522 291.471 238.702 292.174 238.702 293.252C238.702 294.331 239.522 295.04 240.957 295.04C242.393 295.04 243.213 294.331 243.213 293.252ZM244.004 289.35L235.549 289.35L235.549 288.331L244.004 288.331L244.004 289.35ZM244.11 284.645C244.11 286.198 242.868 287.252 240.957 287.252C239.047 287.252 237.805 286.204 237.805 284.668C237.805 283.795 238.233 283.092 238.901 282.729L238.901 282.706L235.549 282.706L235.549 281.686L244.004 281.686L244.004 282.659L242.973 282.659L242.973 282.676C243.676 283.069 244.11 283.766 244.11 284.645ZM238.702 284.452C238.702 285.53 239.58 286.209 240.957 286.209C242.34 286.209 243.213 285.53 243.213 284.452C243.213 283.403 242.323 282.7 240.957 282.7C239.598 282.7 238.702 283.403 238.702 284.452ZM238.69 277.866C238.69 278.821 239.422 279.489 240.436 279.553L240.436 276.243C239.416 276.266 238.69 276.905 238.69 277.866ZM242.258 276.266L242.258 275.264C243.325 275.44 244.11 276.471 244.11 277.801C244.11 279.547 242.897 280.608 240.981 280.608C239.088 280.608 237.805 279.53 237.805 277.848C237.805 276.202 239 275.188 240.846 275.188L241.233 275.188L241.233 279.559L241.291 279.559C242.457 279.559 243.225 278.874 243.225 277.778C243.225 277.004 242.832 276.436 242.258 276.266ZM244.004 274.157L237.911 274.157L237.911 273.196L238.907 273.196L238.907 273.172C238.233 272.973 237.805 272.411 237.805 271.696C237.805 271.52 237.834 271.368 237.846 271.286L238.836 271.286C238.807 271.368 238.778 271.584 238.778 271.831C238.778 272.622 239.346 273.137 240.207 273.137L244.004 273.137L244.004 274.157ZM244.004 267.993L237.911 267.993L237.911 267.032L238.883 267.032L238.883 267.008C238.227 266.668 237.805 266.018 237.805 265.075C237.805 263.739 238.666 262.965 240.049 262.965L244.004 262.965L244.004 263.985L240.231 263.985C239.246 263.985 238.707 264.448 238.707 265.385C238.707 266.346 239.387 266.973 240.418 266.973L244.004 266.973L244.004 267.993ZM243.243 259.655C243.243 258.694 242.569 257.956 241.69 257.956L241.192 257.956L241.291 259.584C241.344 260.405 241.707 260.874 242.282 260.874C242.862 260.874 243.243 260.387 243.243 259.655ZM244.11 259.883C244.11 261.096 243.377 261.911 242.282 261.911C241.239 261.911 240.582 261.108 240.5 259.702L240.401 257.956L239.891 257.956C239.147 257.956 238.702 258.448 238.702 259.292C238.702 260.077 239.071 260.569 239.668 260.698L239.668 261.682C238.614 261.612 237.805 260.709 237.805 259.268C237.805 257.838 238.579 256.936 239.791 256.936L244.004 256.936L244.004 257.903L242.955 257.903L242.955 257.926C243.653 258.29 244.11 259.063 244.11 259.883ZM244.004 255.641L237.911 255.641L237.911 254.68L238.883 254.68L238.883 254.657C238.239 254.37 237.805 253.749 237.805 252.928C237.805 252.096 238.227 251.481 238.965 251.217L238.965 251.194C238.239 250.854 237.805 250.139 237.805 249.284C237.805 248.077 238.59 247.297 239.797 247.297L244.004 247.297L244.004 248.317L240.032 248.317C239.2 248.317 238.707 248.78 238.707 249.583C238.707 250.391 239.305 250.959 240.131 250.959L244.004 250.959L244.004 251.979L239.92 251.979C239.188 251.979 238.707 252.471 238.707 253.227C238.707 254.036 239.34 254.622 240.184 254.622L244.004 254.622L244.004 255.641ZM238.69 243.553C238.69 244.508 239.422 245.176 240.436 245.241L240.436 241.93C239.416 241.954 238.69 242.592 238.69 243.553ZM242.258 241.954L242.258 240.952C243.325 241.127 244.11 242.159 244.11 243.489C244.11 245.235 242.897 246.295 240.981 246.295C239.088 246.295 237.805 245.217 237.805 243.536C237.805 241.889 239 240.875 240.846 240.875L241.233 240.875L241.233 245.247L241.291 245.247C242.457 245.247 243.225 244.561 243.225 243.465C243.225 242.692 242.832 242.124 242.258 241.954Z"
                                fill="white"
                            />
                        </g>
                        <defs>
                            <linearGradient
                                id="paint0_linear_2_1160"
                                x1="247.306"
                                y1="340.147"
                                x2="247.182"
                                y2="113.031"
                                gradientUnits="userSpaceOnUse"
                            >
                                <stop stop-color="#02CAFD" />
                                <stop offset="1" stop-color="#83F8A6" />
                            </linearGradient>
                            <linearGradient
                                id="paint1_linear_2_1160"
                                x1="164.391"
                                y1="356.619"
                                x2="164.376"
                                y2="254.449"
                                gradientUnits="userSpaceOnUse"
                            >
                                <stop stop-color="#02CAFD" />
                                <stop offset="1" stop-color="#83F8A6" />
                            </linearGradient>
                            <linearGradient
                                id="paint2_linear_2_1160"
                                x1="96.2925"
                                y1="264.202"
                                x2="96.2361"
                                y2="174.229"
                                gradientUnits="userSpaceOnUse"
                            >
                                <stop stop-color="#02CAFD" />
                                <stop offset="1" stop-color="#83F8A6" />
                            </linearGradient>
                            <linearGradient
                                id="paint3_linear_2_1160"
                                x1="167.885"
                                y1="152.895"
                                x2="167.854"
                                y2="3.63784"
                                gradientUnits="userSpaceOnUse"
                            >
                                <stop stop-color="#02CAFD" />
                                <stop offset="1" stop-color="#83F8A6" />
                            </linearGradient>
                            <clipPath id="clip0_2_1160">
                                <rect
                                    x="300.004"
                                    y="5.60791"
                                    width="350"
                                    height="222"
                                    rx="16"
                                    transform="rotate(90 300.004 5.60791)"
                                    fill="white"
                                />
                            </clipPath>
                        </defs>
                    </svg>